<svg width="70" height="70" viewBox="0 0 70 70" version="1.1" xmlns="http://www.w3.org/2000/svg" xmlns:xlink="http://www.w3.org/1999/xlink">
<title>Favicon</title>
<desc>Created using Figma</desc>
<g id="Canvas" transform="translate(502 1876)">
<clipPath id="clip-0" clip-rule="evenodd">
<path d="M -502 -1876L -432 -1876L -432 -1806L -502 -1806L -502 -1876Z" fill="#FFFFFF"/>
</clipPath>
<g id="Favicon" clip-path="url(#clip-0)">
<path d="M -502 -1876L -432 -1876L -432 -1806L -502 -1806L -502 -1876Z" fill="#FFFFFF"/>
<g id="Rectangle">
<use xlink:href="#path0_fill" transform="translate(-502 -1876)" fill="#333449"/>
</g>
<g id="Header">
<g id="Logo">
<g id="Group">
<g id="Group">
<g id="Group">
<g id="Vector">
<use xlink:href="#path1_fill" transform="translate(-480.125 -1861.42)" fill="#EE9468"/>
</g>
</g>
<g id="Vector">
<use xlink:href="#path2_fill" transform="translate(-476.473 -1835.49)" fill="#FAEDD1"/>
</g>
</g>
</g>
</g>
</g>
</g>
</g>
<defs>
<path id="path0_fill" d="M 0 4C 0 1.79086 1.79086 0 4 0L 66 0C 68.2091 0 70 1.79086 70 4L 70 66C 70 68.2091 68.2091 70 66 70L 4 70C 1.79086 70 0 68.2091 0 66L 0 4Z"/>
<path id="path1_fill" d="M 21.4768 28.8346L 18.4076 25.9269C 18.1715 25.6846 18.1125 25.2606 18.3486 25.0183C 20.4144 22.5346 21.1226 19.8692 20.5324 17.0827C 20.0012 14.5385 17.9944 12.5394 15.8696 10.4192C 15.4564 9.99519 14.9842 9.57115 14.5711 9.08654L 13.5677 8.05673C 13.3316 7.81442 12.9184 7.81442 12.6823 8.05673L 11.6789 9.08654C 11.2658 9.51058 10.7936 9.93462 10.3804 10.4192C 8.25559 12.5394 6.2488 14.5385 5.71759 17.0827C 5.12736 19.8692 5.83564 22.5346 7.90145 25.0183C 8.13754 25.2606 8.07852 25.6846 7.84243 25.9269L 4.7142 28.8346C 4.47811 29.0769 4.06494 29.0769 3.82885 28.774C 0.523553 24.8971 -0.656911 20.4144 0.346483 15.8106C 1.23183 11.6913 4.06494 8.84423 6.54392 6.36058C 6.95708 5.93654 7.37024 5.5125 7.7834 5.14904L 10.4394 2.42308L 12.7413 0.181731C 12.9774 -0.0605769 13.3906 -0.0605769 13.6267 0.181731L 18.4666 5.14904C 18.8798 5.57308 19.2929 5.99712 19.7061 6.36058C 22.1851 8.84423 25.0182 11.6308 25.9035 15.8106C 26.9069 20.4144 25.7264 24.8971 22.4212 28.774C 22.1851 29.0769 21.7719 29.0769 21.4768 28.8346Z"/>
<path id="path2_fill" d="M 18.7103 10.1769C 18.9464 9.93462 18.9464 9.51058 18.7103 9.26827L 10.3291 0.969232L 9.44371 -4.62165e-07L 9.38469 0.0605779L 9.32566 -4.62165e-07L 8.44031 0.969232L 0.17707 9.26827C -0.0590232 9.51058 -0.0590232 9.93462 0.17707 10.1769L 3.06921 13.2663C 3.3053 13.5087 3.71846 13.5087 3.95455 13.2663L 8.97152 8.29904C 9.20762 8.05673 9.62078 8.05673 9.85687 8.29904L 14.8738 13.2663C 15.1099 13.5087 15.5231 13.5087 15.7592 13.2663L 18.7103 10.1769Z"/>
</defs>
</svg>
