<svg width="40" height="63" viewBox="0 0 40 63" version="1.1" xmlns="http://www.w3.org/2000/svg" xmlns:xlink="http://www.w3.org/1999/xlink">
<title>Logo</title>
<desc>Created using Figma</desc>
<g id="Canvas" transform="translate(242 1457)">
<g id="Logo">
<g id="Group">
<g id="Group">
<g id="Group">
<g id="Vector">
<use xlink:href="#path0_fill" transform="translate(-242 -1456.75)" fill="#EE9468"/>
</g>
</g>
<g id="Vector">
<use xlink:href="#path1_fill" transform="translate(-236.435 -1415.93)" fill="#FAEDD1"/>
</g>
</g>
</g>
</g>
</g>
<defs>
<path id="path0_fill" d="M 32.7265 45.4031L 28.0496 40.8246C 27.6899 40.4431 27.5999 39.7754 27.9597 39.3938C 31.1076 35.4831 32.1869 31.2862 31.2875 26.8985C 30.478 22.8923 27.4201 19.7446 24.1822 16.4062C 23.5526 15.7385 22.8331 15.0708 22.2035 14.3077L 20.6746 12.6862C 20.3148 12.3046 19.6852 12.3046 19.3254 12.6862L 17.7965 14.3077C 17.1669 14.9754 16.4474 15.6431 15.8178 16.4062C 12.5799 19.7446 9.52198 22.8923 8.71252 26.8985C 7.81312 31.2862 8.8924 35.4831 12.0403 39.3938C 12.4001 39.7754 12.3101 40.4431 11.9504 40.8246L 7.18354 45.4031C 6.82378 45.7846 6.1942 45.7846 5.83444 45.3077C 0.797795 39.2031 -1.00101 32.1446 0.527974 24.8954C 1.87708 18.4092 6.1942 13.9262 9.97168 10.0154C 10.6013 9.34769 11.2308 8.68 11.8604 8.10769L 15.9077 3.81538L 19.4154 0.286154C 19.7751 -0.0953846 20.4047 -0.0953846 20.7645 0.286154L 28.1396 8.10769C 28.7692 8.77538 29.3987 9.44308 30.0283 10.0154C 33.8058 13.9262 38.1229 18.3138 39.472 24.8954C 41.001 32.1446 39.2022 39.2031 34.1656 45.3077C 33.8058 45.7846 33.1762 45.7846 32.7265 45.4031Z"/>
<path id="path1_fill" d="M 28.511 16.0246C 28.8708 15.6431 28.8708 14.9754 28.511 14.5938L 15.7395 1.52616L 14.3904 -7.27727e-07L 14.3005 0.0953861L 14.2105 -7.27727e-07L 12.8614 1.52616L 0.26982 14.5938C -0.0899401 14.9754 -0.0899401 15.6431 0.26982 16.0246L 4.67688 20.8892C 5.03664 21.2708 5.66623 21.2708 6.02599 20.8892L 13.6709 13.0677C 14.0307 12.6862 14.6602 12.6862 15.02 13.0677L 22.6649 20.8892C 23.0247 21.2708 23.6542 21.2708 24.014 20.8892L 28.511 16.0246Z"/>
</defs>
</svg>
