<?xml version="1.0" encoding="utf-8"?>
<!-- Generator: Adobe Illustrator 21.0.2, SVG Export Plug-In . SVG Version: 6.00 Build 0)  -->
<svg version="1.1" id="Layer_1" xmlns="http://www.w3.org/2000/svg" xmlns:xlink="http://www.w3.org/1999/xlink" x="0px" y="0px"
	 viewBox="0 0 150 180.874" style="enable-background:new 0 0 150 180.874;" xml:space="preserve">
<style type="text/css">
	.st0{fill:none;stroke:#F86D3C;stroke-width:17;stroke-miterlimit:10;}
	.st1{fill:none;stroke:#70544B;stroke-width:17;stroke-miterlimit:10;}
	.st2{fill:#333449;}
	.st3{fill:#EE9468;}
	.st4{fill:#FAEDD1;}
	.st5{fill:#65687F;}
	.st6{fill:#DADEEA;}
	.st7{fill:#FFFFFF;}
</style>
<path class="st7" d="M142.909,0H7.091c-3.88,0-7.025,3.145-7.025,7.025v144.309c0,3.309,2.309,6.169,5.544,6.867l67.981,22.673
	c0.928,0.2,1.887,0.21,2.819,0.029l67.837-22.795c3.303-0.641,5.688-3.533,5.688-6.897V7.025C149.934,3.145,146.789,0,142.909,0z
	 M102.128,131.368l-8.505,8.794c-0.723,0.747-1.914,0.767-2.661,0.044l-14.743-14.258c-0.73-0.706-1.887-0.706-2.617,0
	l-14.743,14.258c-0.747,0.723-1.939,0.703-2.661-0.044l-8.505-8.794c-0.723-0.747-0.703-1.939,0.044-2.662l24.477-23.672
	l2.607-2.695l0.09,0.087l0.09-0.087l2.607,2.695l24.477,23.672C102.831,129.429,102.851,130.62,102.128,131.368z M102.268,110.494
	c-0.688,0.795-1.909,0.841-2.681,0.127l-8.992-8.316c-0.734-0.679-0.814-1.819-0.167-2.581c6.05-7.132,8.208-14.773,6.416-22.738
	c-1.618-7.192-7.502-12.903-13.731-18.949c-1.295-1.256-2.577-2.503-3.815-3.753l-2.961-2.992c-0.737-0.744-1.939-0.744-2.676,0
	l-2.96,2.991c-1.238,1.252-2.521,2.498-3.816,3.754c-6.229,6.047-12.112,11.757-13.731,18.95
	c-1.792,7.964,0.366,15.605,6.416,22.737c0.646,0.762,0.566,1.903-0.167,2.581l-8.992,8.316c-0.772,0.714-1.993,0.668-2.681-0.127
	C38.11,99.38,34.59,86.618,37.547,73.474c2.664-11.841,10.916-19.85,18.196-26.918c1.217-1.181,2.424-2.352,3.587-3.527l7.778-7.854
	l6.785-6.41c0.742-0.701,1.907-0.683,2.627,0.041l14.15,14.223c1.163,1.175,2.37,2.346,3.587,3.527
	c7.28,7.067,15.531,15.077,18.196,26.917C115.41,86.618,111.89,99.381,102.268,110.494z"/>
</svg>
