<svg width="71" height="87" viewBox="0 0 71 87" version="1.1" xmlns="http://www.w3.org/2000/svg" xmlns:xlink="http://www.w3.org/1999/xlink">
<title>noun_1627721_cc</title>
<desc>Created using Figma</desc>
<g id="Canvas" transform="translate(254 1461)">
<g id="noun_1627721_cc">
<g id="Group">
<g id="Vector">
<use xlink:href="#path0_fill" transform="translate(-245.001 -1401)" fill="#FAEDD1"/>
</g>
<g id="Vector">
<use xlink:href="#path1_fill" transform="translate(-254 -1461)" fill="#F2F2F2"/>
</g>
<g id="Vector">
<use xlink:href="#path2_fill" transform="translate(-211 -1435)" fill="#FFFFFF"/>
</g>
<g id="Vector">
<use xlink:href="#path3_fill" transform="translate(-236 -1429)" fill="#D47A2A"/>
</g>
<g id="Vector">
<use xlink:href="#path4_fill" transform="translate(-231 -1419)" fill="#F2C94C"/>
</g>
</g>
</g>
</g>
<defs>
<path id="path0_fill" d="M 42.938 8.64866L 39.938 0.648657C 39.8906 0.522534 39.8183 0.407276 39.7253 0.309797C 39.6324 0.212318 39.5206 0.134627 39.3969 0.0813922C 39.2732 0.0281577 39.1399 0.00047573 39.0052 5.60723e-06C 38.8705 -0.000464515 38.7371 0.0262876 38.613 0.078657L 21.501 7.28366L 4.38897 0.0836581C 4.26486 0.0312887 4.13144 0.00453655 3.99673 0.00500668C 3.86202 0.0054768 3.72879 0.0331588 3.60505 0.0863932C 3.4813 0.139628 3.36959 0.217315 3.27661 0.314794C 3.18363 0.412274 3.1113 0.527535 3.06397 0.653658L 0.0639739 8.65366C -0.0270631 8.89579 -0.020731 9.16377 0.0816398 9.40133C 0.184011 9.63889 0.374455 9.82754 0.612975 9.92766L 7.92397 13.0007L 0.612975 16.0787C 0.374455 16.1788 0.184011 16.3674 0.0816398 16.605C -0.020731 16.8425 -0.0270631 17.1105 0.0639739 17.3527L 3.06397 25.3527C 3.11144 25.4785 3.18382 25.5936 3.27678 25.6908C 3.36974 25.7881 3.48136 25.8656 3.60497 25.9187C 3.72992 25.973 3.86474 26.0009 4.00097 26.0007C 4.13421 26.0008 4.26613 25.9742 4.38897 25.9227L 21.501 18.7227L 38.613 25.9227C 38.7358 25.9742 38.8677 26.0008 39.001 26.0007C 39.1386 26.0014 39.2748 25.9735 39.401 25.9187C 39.5246 25.8656 39.6362 25.7881 39.7292 25.6908C 39.8221 25.5936 39.8945 25.4785 39.942 25.3527L 42.942 17.3527C 43.033 17.1105 43.0267 16.8425 42.9243 16.605C 42.8219 16.3674 42.6315 16.1788 42.393 16.0787L 35.078 13.0007L 42.389 9.92266C 42.6275 9.82254 42.8179 9.63389 42.9203 9.39633C 43.0227 9.15877 43.029 8.89079 42.938 8.64866ZM 18.924 17.6327L 4.57197 23.6757L 3.84197 21.7277L 10.395 18.9197C 10.5175 18.8692 10.6288 18.7949 10.7223 18.701C 10.8159 18.6071 10.8898 18.4956 10.9399 18.3729C 10.99 18.2502 11.0152 18.1188 11.014 17.9863C 11.0129 17.8538 10.9854 17.7228 10.9332 17.601C 10.8809 17.4792 10.805 17.369 10.7099 17.2768C 10.6147 17.1846 10.5021 17.1122 10.3787 17.0639C 10.2553 17.0156 10.1235 16.9923 9.99106 16.9953C 9.85858 16.9984 9.72802 17.0277 9.60698 17.0817L 3.13897 19.8537L 2.27397 17.5537L 10.501 14.0857L 13.66 15.4157L 18.924 17.6327ZM 39.858 19.8667L 35.372 18.0667C 35.25 18.0179 35.1196 17.9937 34.9882 17.9954C 34.8569 17.9971 34.7271 18.0246 34.6064 18.0764C 34.4857 18.1282 34.3764 18.2033 34.2847 18.2974C 34.193 18.3915 34.1207 18.5027 34.072 18.6247C 34.0233 18.7467 33.999 18.8771 34.0007 19.0084C 34.0024 19.1398 34.0299 19.2695 34.0817 19.3902C 34.1335 19.5109 34.2086 19.6203 34.3027 19.712C 34.3968 19.8037 34.508 19.8759 34.63 19.9247L 39.156 21.7347L 38.43 23.6707L 21.889 16.7107L 10.889 12.0787L 2.27497 8.45166L 4.57497 2.32566L 21.113 9.29066L 32.113 13.9227L 40.727 17.5497L 39.858 19.8667ZM 32.501 11.9157L 29.342 10.5857L 24.078 8.36866L 38.43 2.32566L 40.73 8.45166L 32.501 11.9157Z"/>
<path id="path1_fill" d="M 0.461167 16.1595C 0.237722 16.3025 0.0802167 16.5283 0.0232994 16.7874C -0.0336179 17.0465 0.0147157 17.3176 0.157667 17.541C 0.300619 17.7645 0.526479 17.922 0.78556 17.9789C 1.04464 18.0358 1.31572 17.9875 1.53917 17.8445L 13.5392 10.1635C 13.5712 10.1425 13.5892 10.1105 13.6182 10.0875C 14.5724 11.1144 15.8565 11.7742 17.2469 11.9521C 18.6374 12.1301 20.0462 11.8149 21.2283 11.0614C 22.4104 10.3079 23.2909 9.16382 23.7165 7.82822C 24.1422 6.49263 24.0862 5.05006 23.5582 3.75151L 26.5392 1.84351C 26.756 1.69768 26.9071 1.47279 26.9602 1.21696C 27.0133 0.961123 26.9641 0.694668 26.8233 0.474609C 26.6824 0.254549 26.461 0.0983645 26.2064 0.0394761C 25.9519 -0.0194123 25.6844 0.0236728 25.4612 0.159512L 22.5052 2.05151C 21.5605 0.969132 20.2582 0.262279 18.8359 0.0598075C 17.4136 -0.142664 15.9658 0.172729 14.7566 0.948494C 13.5474 1.72426 12.6572 2.90873 12.2483 4.286C 11.8395 5.66326 11.9391 7.14159 12.5292 8.45151C 12.5072 8.46351 12.4822 8.46451 12.4612 8.47851L 0.461167 16.1595ZM 18.0002 2.00151C 18.7913 2.00151 19.5647 2.23611 20.2224 2.67563C 20.8802 3.11516 21.3929 3.73987 21.6957 4.47078C 21.9984 5.20168 22.0777 6.00595 21.9233 6.78187C 21.769 7.5578 21.388 8.27053 20.8286 8.82994C 20.2692 9.38935 19.5565 9.77031 18.7805 9.92465C 18.0046 10.079 17.2003 9.99978 16.4694 9.69703C 15.7385 9.39428 15.1138 8.88159 14.6743 8.22379C 14.2348 7.566 14.0002 6.79264 14.0002 6.00151C 14.0002 4.94065 14.4216 3.92323 15.1717 3.17308C 15.9219 2.42294 16.9393 2.00151 18.0002 2.00151Z"/>
<path id="path2_fill" d="M 26.3713 11.0705L 16.8623 7.27051C 17.1643 5.88523 16.9654 4.43776 16.301 3.18525C 15.6366 1.93273 14.5498 0.956275 13.2335 0.429341C 11.9173 -0.097593 10.4568 -0.140885 9.11169 0.307154C 7.76654 0.755194 6.62375 1.66556 5.88634 2.87651L 1.37134 1.07052C 1.24934 1.02179 1.11894 0.997581 0.987588 0.999255C 0.856232 1.00093 0.726492 1.02846 0.605775 1.08028C 0.485059 1.13209 0.375731 1.20718 0.284032 1.30124C 0.192334 1.39531 0.120061 1.50652 0.0713401 1.62852C 0.0226197 1.75051 -0.00159325 1.88091 8.15825e-05 2.01227C 0.00175641 2.14362 0.0292868 2.27336 0.0811019 2.39408C 0.132917 2.5148 0.208001 2.62413 0.302068 2.71582C 0.396135 2.80752 0.507345 2.87979 0.629343 2.92851L 5.13834 4.72852C 4.83762 6.11348 5.03737 7.56019 5.70212 8.81185C 6.36688 10.0635 7.45363 11.0391 8.76948 11.5655C 10.0853 12.092 11.5451 12.1351 12.8897 11.6873C 14.2344 11.2395 15.3768 10.3297 16.1143 9.11952L 25.6293 12.9255C 25.7471 12.9739 25.8731 12.999 26.0003 12.9995C 26.2329 12.9997 26.4583 12.9189 26.6378 12.7708C 26.8172 12.6228 26.9393 12.4168 26.9833 12.1884C 27.0272 11.96 26.9901 11.7234 26.8784 11.5193C 26.7668 11.3153 26.5874 11.1566 26.3713 11.0705L 26.3713 11.0705ZM 11.0003 9.99952C 10.2092 9.99952 9.43586 9.76492 8.77806 9.32539C 8.12026 8.88587 7.60757 8.26115 7.30482 7.53025C 7.00207 6.79934 6.92286 5.99508 7.0772 5.21915C 7.23154 4.44323 7.61251 3.7305 8.17192 3.17109C 8.73133 2.61168 9.44406 2.23071 10.22 2.07637C 10.9959 1.92203 11.8002 2.00125 12.5311 2.304C 13.262 2.60675 13.8867 3.11944 14.3262 3.77723C 14.7657 4.43503 15.0003 5.20839 15.0003 5.99952C 15.0003 7.06038 14.5789 8.0778 13.8288 8.82794C 13.0786 9.57809 12.0612 9.99952 11.0003 9.99952Z"/>
<path id="path3_fill" d="M 12.479 0.122114C 12.3505 0.0520061 12.2081 0.0109741 12.062 0.00191597C 11.9159 -0.00714214 11.7695 0.0159948 11.6333 0.0696927C 11.4971 0.123391 11.3744 0.20634 11.2738 0.31268C 11.1731 0.419021 11.0971 0.546159 11.051 0.685115L 10.764 1.54911C 9.71262 4.70991 7.82437 7.52673 5.3 9.70012C 3.66188 10.8725 2.32667 12.4183 1.40499 14.2095C 0.483305 16.0007 0.00167635 17.9857 3.55271e-15 20.0001C 7.10543e-15 23.1827 1.26428 26.235 3.51472 28.4854C 5.76516 30.7358 8.8174 32.0001 12 32.0001C 15.1826 32.0001 18.2348 30.7358 20.4853 28.4854C 22.7357 26.235 24 23.1827 24 20.0001L 24 19.5301C 24.0008 15.5584 22.9313 11.6598 20.9039 8.24449C 18.8765 4.82918 15.9661 2.02334 12.479 0.122114L 12.479 0.122114ZM 22 20.0001C 22 22.6523 20.9464 25.1958 19.0711 27.0712C 17.1957 28.9465 14.6522 30.0001 12 30.0001C 9.34784 30.0001 6.8043 28.9465 4.92893 27.0712C 3.05357 25.1958 2 22.6523 2 20.0001C 2.00533 18.2896 2.41942 16.6051 3.20775 15.0871C 3.99609 13.569 5.13583 12.2614 6.532 11.2731C 9.28175 8.92676 11.3609 5.89391 12.558 2.48311C 15.4483 4.29072 17.8313 6.80373 19.4831 9.78583C 21.1348 12.7679 22.0009 16.1211 22 19.5301L 22 20.0001Z"/>
<path id="path4_fill" d="M 7 15.9993C 5.6922 16.0153 4.43141 15.5121 3.4941 14.5999C 2.5568 13.6877 2.01949 12.441 2 11.1333C 2.00757 10.2851 2.22079 9.45131 2.62139 8.70358C 3.02199 7.95586 3.59799 7.31648 4.3 6.84029C 5.56679 5.78714 6.59028 4.47196 7.3 2.98529C 7.90434 3.97564 8.24669 5.10352 8.2948 6.26271C 8.34291 7.4219 8.0952 8.57426 7.575 9.61129L 7.105 10.5523C 7.0463 10.6698 7.01132 10.7978 7.00207 10.9288C 6.99281 11.0599 7.00946 11.1915 7.05106 11.3161C 7.09266 11.4407 7.1584 11.5559 7.24453 11.6551C 7.33065 11.7543 7.43547 11.8356 7.553 11.8943C 7.67053 11.953 7.79848 11.988 7.92953 11.9972C 8.06058 12.0065 8.19217 11.9898 8.31678 11.9482C 8.4414 11.9066 8.5566 11.8409 8.65581 11.7548C 8.75502 11.6686 8.8363 11.5638 8.895 11.4463L 9.364 10.5063C 10.1967 8.84574 10.4847 6.96498 10.1872 5.13133C 9.88978 3.29768 9.02191 1.60445 7.707 0.292289C 7.58683 0.172321 7.43808 0.0849304 7.27479 0.0383537C 7.1115 -0.00822293 6.93904 -0.0124498 6.77366 0.0260685C 6.60828 0.0645868 6.45543 0.144583 6.32953 0.258517C 6.20362 0.372451 6.1088 0.516569 6.054 0.677289L 5.896 1.13829C 5.35262 2.73797 4.38481 4.15995 3.096 5.25229C 2.14483 5.91111 1.3667 6.78975 0.827705 7.8136C 0.288711 8.83744 0.00477118 9.97625 3.55271e-15 11.1333C 7.10543e-15 12.9898 0.737498 14.7703 2.05025 16.083C 3.36301 17.3958 5.14348 18.1333 7 18.1333C 8.85652 18.1333 10.637 17.3958 11.9497 16.083C 13.2625 14.7703 14 12.9898 14 11.1333L 14 10.8823C 14 10.6171 13.8946 10.3627 13.7071 10.1752C 13.5196 9.98765 13.2652 9.88229 13 9.88229C 12.7348 9.88229 12.4804 9.98765 12.2929 10.1752C 12.1054 10.3627 12 10.6171 12 10.8823L 12 11.1333C 11.9805 12.441 11.4432 13.6877 10.5059 14.5999C 9.56859 15.5121 8.3078 16.0153 7 15.9993Z"/>
</defs>
</svg>
